<svg width="24" height="24" viewBox="0 0 24 24" fill="none" xmlns="http://www.w3.org/2000/svg">
<path d="M4.5 4.5C4.5 3.70435 4.81607 2.94129 5.37868 2.37868C5.94129 1.81607 6.70435 1.5 7.5 1.5C8.29565 1.5 9.05871 1.81607 9.62132 2.37868C10.1839 2.94129 10.5 3.70435 10.5 4.5C10.5 5.29565 10.1839 6.05871 9.62132 6.62132C9.05871 7.18393 8.29565 7.5 7.5 7.5C6.70435 7.5 5.94129 7.18393 5.37868 6.62132C4.81607 6.05871 4.5 5.29565 4.5 4.5ZM7.5 3C7.10218 3 6.72064 3.15804 6.43934 3.43934C6.15804 3.72064 6 4.10218 6 4.5C6 4.89782 6.15804 5.27936 6.43934 5.56066C6.72064 5.84196 7.10218 6 7.5 6C7.89782 6 8.27936 5.84196 8.56066 5.56066C8.84196 5.27936 9 4.89782 9 4.5C9 4.10218 8.84196 3.72064 8.56066 3.43934C8.27936 3.15804 7.89782 3 7.5 3Z" fill="#141414"/>
<path d="M14.6685 6.87602C14.3542 6.63631 14.0904 6.33686 13.8923 5.99488C13.6941 5.65291 13.5655 5.27514 13.5137 4.88329C13.462 4.49145 13.4882 4.09324 13.5909 3.71156C13.6935 3.32987 13.8706 2.97224 14.1119 2.6592C14.3532 2.34616 14.654 2.08389 14.997 1.88745C15.34 1.69102 15.7184 1.5643 16.1105 1.51457C16.5026 1.46483 16.9006 1.49307 17.2818 1.59766C17.663 1.70225 18.0197 1.88113 18.3315 2.12402C18.9454 2.61512 19.3421 3.32761 19.436 4.10817C19.53 4.88873 19.3138 5.67499 18.8339 6.29776C18.3541 6.92053 17.6489 7.33005 16.8702 7.43819C16.0915 7.54633 15.3014 7.34446 14.67 6.87602H14.6685ZM16.5 3.00002C16.1022 3.00002 15.7206 3.15805 15.4393 3.43936C15.158 3.72066 15 4.10219 15 4.50002C15 4.89784 15.158 5.27937 15.4393 5.56068C15.7206 5.84198 16.1022 6.00002 16.5 6.00002C16.8978 6.00002 17.2794 5.84198 17.5607 5.56068C17.842 5.27937 18 4.89784 18 4.50002C18 4.10219 17.842 3.72066 17.5607 3.43936C17.2794 3.15805 16.8978 3.00002 16.5 3.00002Z" fill="#141414"/>
<path d="M3.75 9H7.755C7.59 9.4695 7.5 9.975 7.5 10.5H3.75C3.55109 10.5 3.36032 10.579 3.21967 10.7197C3.07902 10.8603 3 11.0511 3 11.25C3 12.4755 3.4875 13.3845 4.257 14.0025C4.611 14.2875 5.0355 14.517 5.5155 14.685C5.16301 15.0597 4.89138 15.5029 4.7175 15.987C4.214 15.7847 3.74257 15.5104 3.318 15.1725C2.19 14.265 1.5 12.924 1.5 11.25C1.5 10.6533 1.73705 10.081 2.15901 9.65901C2.58097 9.23705 3.15326 9 3.75 9Z" fill="#141414"/>
<path d="M9.40202 9.00002C9.00419 9.68945 8.89653 10.5087 9.10273 11.2775C9.30893 12.0463 9.81208 12.7017 10.5015 13.0995C11.1909 13.4973 12.0102 13.605 12.779 13.3988C13.5478 13.1926 14.2032 12.6894 14.601 12C14.9988 11.3106 15.1065 10.4914 14.9003 9.72256C14.6941 8.95375 14.1909 8.29834 13.5015 7.90052C12.8121 7.5027 11.9929 7.39504 11.2241 7.60124C10.4552 7.80743 9.79984 8.31059 9.40202 9.00002ZM11.664 9.03752C11.8838 8.98787 12.1119 8.98822 12.3315 9.03854C12.5512 9.08887 12.7567 9.18787 12.9329 9.32826C13.1091 9.46864 13.2516 9.64682 13.3498 9.84963C13.4479 10.0524 13.4993 10.2747 13.5 10.5C13.4999 10.7822 13.4202 11.0587 13.27 11.2977C13.1198 11.5366 12.9052 11.7283 12.6509 11.8508C12.3967 11.9733 12.113 12.0215 11.8325 11.99C11.5521 11.9585 11.2862 11.8485 11.0654 11.6727C10.8447 11.4968 10.678 11.2623 10.5846 10.9959C10.4912 10.7296 10.4748 10.4424 10.5373 10.1671C10.5998 9.89192 10.7387 9.63992 10.938 9.4401C11.1373 9.24028 11.389 9.10074 11.664 9.03752Z" fill="#141414"/>
<path d="M19.743 14.0025C19.389 14.2875 18.9645 14.517 18.4845 14.685C18.8364 15.0598 19.1076 15.503 19.281 15.987C19.791 15.7785 20.2635 15.507 20.682 15.1725C21.81 14.265 22.5 12.924 22.5 11.25C22.5 10.6533 22.2629 10.081 21.841 9.65901C21.419 9.23705 20.8467 9 20.25 9H16.245C16.41 9.4695 16.5 9.975 16.5 10.5H20.25C20.4489 10.5 20.6397 10.579 20.7803 10.7197C20.921 10.8603 21 11.0511 21 11.25C21 12.4755 20.5125 13.3845 19.743 14.0025Z" fill="#141414"/>
<path d="M15.75 15C16.3467 15 16.919 15.2371 17.341 15.659C17.763 16.081 18 16.6533 18 17.25C18 18.924 17.3115 20.265 16.182 21.1725C15.0705 22.065 13.5795 22.5 12 22.5C10.4205 22.5 8.92951 22.065 7.81801 21.1725C6.69001 20.265 6.00001 18.924 6.00001 17.25C5.99922 16.9543 6.05687 16.6614 6.16967 16.388C6.28246 16.1147 6.44816 15.8663 6.65725 15.6573C6.86634 15.4482 7.11469 15.2825 7.38803 15.1697C7.66137 15.0569 7.95431 14.9992 8.25001 15H15.75ZM15.75 16.5H8.25001C8.0511 16.5 7.86033 16.579 7.71968 16.7197C7.57903 16.8603 7.50001 17.0511 7.50001 17.25C7.50001 18.4755 7.98751 19.3845 8.75701 20.0025C9.54601 20.6355 10.68 21 12 21C13.32 21 14.454 20.6355 15.243 20.0025C16.0125 19.3845 16.5 18.4755 16.5 17.25C16.5 17.0511 16.421 16.8603 16.2803 16.7197C16.1397 16.579 15.9489 16.5 15.75 16.5Z" fill="#141414"/>
</svg>
